<svg width="309" height="401" viewBox="0 0 309 401" fill="none" xmlns="http://www.w3.org/2000/svg">
<g clip-path="url(#clip0_305_121)">
<path d="M218.534 110.719C218.534 113.004 218.46 115.27 218.312 117.518C217.481 130.478 214.204 143.165 208.653 154.909C208.61 155.009 208.56 155.102 208.517 155.195C208.259 155.74 207.993 156.284 207.721 156.822C206.07 160.143 204.239 163.372 202.235 166.494C193.083 180.824 180.539 192.682 165.711 201.019C150.883 209.356 134.228 213.916 117.218 214.295L118.244 273.215L131.617 266.18L134.005 270.715L118.344 278.954L120.259 388.383L120.28 389.845L109.94 390.712L109.961 390.676L113.217 214.302C99.5251 214.106 86.0089 211.194 73.4529 205.736C60.8969 200.277 49.5512 192.381 40.0746 182.506C39.4223 181.833 38.7766 181.138 38.1457 180.45C38.117 180.421 38.0956 180.393 38.0739 180.371C30.1782 171.768 23.7925 161.896 19.1861 151.169C19.2866 151.284 19.3941 151.391 19.4946 151.506C9.08384 127.182 8.37776 99.802 17.521 74.9754C26.6642 50.1487 44.9645 29.7556 68.6716 17.975C69.0302 17.7959 69.3961 17.624 69.7546 17.4449C93.2054 6.15933 120.044 4.08858 144.951 11.6431C169.858 19.1976 191.015 35.8258 204.229 58.232C204.86 59.2923 205.469 60.3742 206.057 61.4631C214.265 76.584 218.555 93.5171 218.534 110.719Z" fill="#FBE4CF"/>
<path d="M142.186 390.953C159.243 390.953 173.069 377.138 173.069 360.097C173.069 343.057 159.243 329.242 142.186 329.242C125.13 329.242 111.304 343.057 111.304 360.097C111.304 377.138 125.13 390.953 142.186 390.953Z" fill="#2F2E41"/>
<path d="M178.687 381.307H151.02V390.681H178.687V381.307Z" fill="#2F2E41"/>
<path d="M178.882 390.681C180.501 390.681 181.814 387.184 181.814 382.87C181.814 378.555 180.501 375.058 178.882 375.058C177.263 375.058 175.95 378.555 175.95 382.87C175.95 387.184 177.263 390.681 178.882 390.681Z" fill="#2F2E41"/>
<path d="M172.233 380.591H144.565V389.965H172.233V380.591Z" fill="#2F2E41"/>
<path d="M172.428 389.965C174.047 389.965 175.36 386.467 175.36 382.153C175.36 377.839 174.047 374.342 172.428 374.342C170.809 374.342 169.496 377.839 169.496 382.153C169.496 386.467 170.809 389.965 172.428 389.965Z" fill="#2F2E41"/>
<path d="M112.229 331.403C109.735 320.245 117.707 308.971 130.033 306.221C142.36 303.471 154.374 310.287 156.867 321.444C159.361 332.602 151.192 336.717 138.865 339.467C126.539 342.217 114.723 342.561 112.229 331.403Z" fill="#F2357D"/>
<path d="M154.055 358.34C152.44 358.373 150.855 357.898 149.525 356.982C148.195 356.067 147.186 354.757 146.641 353.237C146.611 353.148 146.599 353.054 146.605 352.96C146.612 352.866 146.637 352.774 146.679 352.69C146.72 352.606 146.779 352.531 146.85 352.469C146.921 352.407 147.003 352.36 147.092 352.33C147.182 352.3 147.276 352.288 147.37 352.294C147.464 352.301 147.556 352.326 147.64 352.367C147.724 352.409 147.799 352.467 147.861 352.538C147.923 352.609 147.97 352.692 148 352.781C149.086 356.011 152.804 357.699 156.286 356.545C158.015 355.982 159.451 354.76 160.282 353.143C160.638 352.447 160.853 351.687 160.912 350.908C160.972 350.128 160.876 349.345 160.63 348.603C160.6 348.513 160.588 348.419 160.594 348.325C160.601 348.231 160.626 348.14 160.668 348.056C160.71 347.971 160.768 347.896 160.839 347.834C160.91 347.773 160.992 347.725 161.082 347.695C161.171 347.665 161.265 347.653 161.359 347.66C161.453 347.666 161.545 347.691 161.629 347.733C161.713 347.775 161.789 347.833 161.85 347.904C161.912 347.975 161.96 348.057 161.99 348.146C162.296 349.067 162.417 350.04 162.344 351.008C162.271 351.975 162.006 352.919 161.565 353.784C160.563 355.74 158.828 357.221 156.737 357.905C155.872 358.192 154.967 358.34 154.055 358.34Z" fill="white"/>
<path d="M167.812 362.534C168.641 364.153 168.792 366.036 168.232 367.766C167.672 369.497 166.447 370.935 164.826 371.763C163.205 372.591 161.322 372.742 159.589 372.182C157.857 371.623 156.418 370.399 155.589 368.78L155.583 368.768C153.86 365.394 156.241 363.299 159.618 361.578C162.995 359.857 166.089 359.16 167.812 362.534Z" fill="white"/>
<path d="M278.035 391.231H4.82743C4.63725 391.231 4.45485 391.155 4.32037 391.021C4.18589 390.887 4.11035 390.704 4.11035 390.514C4.11035 390.324 4.18589 390.142 4.32037 390.008C4.45485 389.873 4.63725 389.798 4.82743 389.798H278.035C278.225 389.798 278.408 389.873 278.542 390.008C278.677 390.142 278.752 390.324 278.752 390.514C278.752 390.704 278.677 390.887 278.542 391.021C278.408 391.155 278.225 391.231 278.035 391.231Z" fill="#3F3D56"/>
<path d="M135.277 400.945C138.153 400.204 138.569 392.182 136.206 383.028C133.843 373.873 129.596 367.053 126.72 367.794C123.843 368.536 123.427 376.557 125.79 385.712C128.153 394.866 132.4 401.686 135.277 400.945Z" fill="#2F2E41"/>
<path d="M187.133 323.315H175.383C175.271 323.315 175.162 323.281 175.07 323.218C174.977 323.155 174.906 323.065 174.866 322.961C174.826 322.856 174.818 322.742 174.844 322.633C174.87 322.525 174.928 322.426 175.011 322.351L185.696 312.683H175.824C175.677 312.683 175.536 312.625 175.432 312.521C175.328 312.417 175.27 312.276 175.27 312.129C175.27 311.983 175.328 311.842 175.432 311.738C175.536 311.634 175.677 311.576 175.824 311.576H187.133C187.245 311.576 187.354 311.61 187.447 311.673C187.539 311.736 187.61 311.826 187.65 311.93C187.69 312.035 187.698 312.149 187.672 312.257C187.646 312.366 187.588 312.465 187.505 312.54L176.821 322.208H187.133C187.28 322.208 187.421 322.266 187.525 322.37C187.629 322.474 187.687 322.615 187.687 322.762C187.687 322.908 187.629 323.049 187.525 323.153C187.421 323.257 187.28 323.315 187.133 323.315Z" fill="#ECD4BF"/>
<path d="M202.095 306.153H190.345C190.233 306.153 190.124 306.119 190.032 306.056C189.939 305.992 189.868 305.903 189.828 305.798C189.788 305.694 189.78 305.58 189.806 305.471C189.832 305.362 189.89 305.264 189.973 305.189L200.658 295.521H190.786C190.639 295.521 190.498 295.462 190.394 295.359C190.29 295.255 190.232 295.114 190.232 294.967C190.232 294.82 190.29 294.679 190.394 294.576C190.498 294.472 190.639 294.413 190.786 294.413H202.095C202.207 294.413 202.316 294.447 202.409 294.511C202.501 294.574 202.572 294.664 202.612 294.768C202.652 294.872 202.66 294.986 202.634 295.095C202.608 295.204 202.55 295.302 202.467 295.377L191.782 305.046H202.095C202.242 305.046 202.383 305.104 202.487 305.208C202.591 305.312 202.649 305.452 202.649 305.599C202.649 305.746 202.591 305.887 202.487 305.991C202.383 306.094 202.242 306.153 202.095 306.153Z" fill="#ECD4BF"/>
<path d="M195.446 287.33H183.696C183.584 287.33 183.475 287.296 183.382 287.232C183.29 287.169 183.219 287.08 183.179 286.975C183.138 286.871 183.131 286.757 183.157 286.648C183.183 286.539 183.241 286.441 183.324 286.366L194.008 276.697H184.136C183.989 276.697 183.849 276.639 183.745 276.535C183.641 276.431 183.582 276.291 183.582 276.144C183.582 275.997 183.641 275.856 183.745 275.752C183.849 275.649 183.989 275.59 184.136 275.59H195.446C195.558 275.59 195.667 275.624 195.759 275.687C195.851 275.751 195.922 275.84 195.963 275.945C196.003 276.049 196.011 276.163 195.985 276.272C195.959 276.381 195.901 276.479 195.818 276.554L185.133 286.222H195.446C195.593 286.222 195.734 286.281 195.837 286.385C195.941 286.488 196 286.629 196 286.776C196 286.923 195.941 287.064 195.837 287.167C195.734 287.271 195.593 287.33 195.446 287.33Z" fill="#ECD4BF"/>
<path d="M276.879 127.08L286.054 119.749C278.926 118.963 275.998 122.847 274.799 125.921C269.231 123.611 263.169 126.638 263.169 126.638L281.526 133.297C280.6 130.825 278.988 128.669 276.879 127.08Z" fill="#3F3D56"/>
<path d="M13.71 7.43437L22.8849 0.102676C15.7573 -0.682989 12.8288 3.20078 11.6302 6.27483C6.06183 3.96468 0 6.99225 0 6.99225L18.3573 13.6507C17.4312 11.1793 15.8191 9.02292 13.71 7.43437Z" fill="#3F3D56"/>
<path d="M299.825 32.5099L309 25.1782C301.873 24.3926 298.944 28.2763 297.745 31.3504C292.177 29.0402 286.115 32.0678 286.115 32.0678L304.473 38.7263C303.546 36.2549 301.934 34.0985 299.825 32.5099Z" fill="#3F3D56"/>
</g>
<defs>
<clipPath id="clip0_305_121">
<rect width="309" height="401" fill="white"/>
</clipPath>
</defs>
</svg>
