<svg width="210" height="189" viewBox="0 0 210 189" fill="none" xmlns="http://www.w3.org/2000/svg">
<rect width="210" height="189" rx="16" fill="white"/>
<g clip-path="url(#clip0_305_516)">
<path d="M179 98.1485C179 118.376 166.196 135.61 148.263 142.168C145.535 143.167 142.719 143.907 139.852 144.378C131.965 145.673 123.879 144.938 116.355 142.241C98.308 135.738 85.4109 118.445 85.4194 98.1385C85.4194 72.2737 106.369 51.297 132.21 51.297C141.976 51.2827 151.499 54.3421 159.434 60.0426C171.281 68.5412 179 82.4419 179 98.1485Z" fill="#E5E5E5"/>
<path d="M148.263 142.168C145.535 143.167 142.719 143.907 139.852 144.378C131.966 145.673 123.88 144.938 116.355 142.241L118.516 133.56L118.646 133.039L123.056 133.056L145.209 133.135L145.492 133.974L148.263 142.168Z" fill="#2F2E41"/>
<path d="M70.6438 45H30V91.0501H70.6438V45Z" fill="#E6E6E6"/>
<path d="M69.848 45.9742H30.7246V90.076H69.848V45.9742Z" fill="white"/>
<path d="M50.3219 88.5079C51.5331 88.5079 52.515 87.5247 52.515 86.312C52.515 85.0992 51.5331 84.1161 50.3219 84.1161C49.1108 84.1161 48.1289 85.0992 48.1289 86.312C48.1289 87.5247 49.1108 88.5079 50.3219 88.5079Z" fill="#E6E6E6"/>
<path d="M49.9515 61.5853H37.3555V62.8756H49.9515V61.5853Z" fill="#E6E6E6"/>
<path d="M56.3663 65.4517H37.3555V66.742H56.3663V65.4517Z" fill="#F2357D"/>
<path d="M54.5002 69.3423H37.3555V70.6326H54.5002V69.3423Z" fill="#E6E6E6"/>
<path d="M63.8306 73.1302H37.3555V74.4205H63.8306V73.1302Z" fill="#F2357D"/>
<path d="M59.2075 76.7376H37.6309V78.0279H59.2075V76.7376Z" fill="#E6E6E6"/>
<path d="M87.7944 119.933C87.949 120.092 88.0908 120.263 88.2185 120.444L108.084 119.957L110.402 115.717L117.25 118.382L113.876 126.289C113.603 126.927 113.131 127.46 112.53 127.807C111.929 128.154 111.232 128.297 110.544 128.214L88.0986 125.499C87.5691 126.17 86.8482 126.664 86.0316 126.915C85.215 127.166 84.3415 127.161 83.5273 126.903C82.713 126.645 81.9967 126.144 81.4734 125.468C80.9502 124.792 80.6449 123.973 80.5981 123.119C80.5513 122.265 80.7653 121.417 81.2116 120.688C81.6579 119.958 82.3154 119.382 83.0965 119.037C83.8777 118.691 84.7455 118.591 85.5845 118.751C86.4236 118.911 87.1942 119.323 87.7937 119.932L87.7944 119.933Z" fill="#9F616A"/>
<path d="M114.533 95.719L123.83 92.6681L126.56 88.9185L139.848 89.7058L141.799 94.0815L148.884 97.4339L147.795 117.683L145.933 136.633C136.354 131.666 118.477 135.453 118.32 135.515L114.533 95.719Z" fill="#F2357D"/>
<path d="M116.52 123.127L107.064 119.339L107.104 119.17C107.145 119 111.17 102.159 111.704 99.4529C112.261 96.6334 114.295 95.8538 114.381 95.8222L114.444 95.7989L118.186 96.9395L119.83 109.871L116.52 123.127Z" fill="#F2357D"/>
<path d="M136.938 135.8C137.16 135.795 137.382 135.807 137.602 135.837L150.752 120.919L149.222 116.336L155.831 113.12L159.327 120.973C159.609 121.607 159.678 122.316 159.524 122.993C159.37 123.67 159 124.279 158.471 124.728L141.223 139.362C141.354 140.207 141.225 141.072 140.854 141.842C140.482 142.612 139.885 143.251 139.142 143.673C138.4 144.095 137.546 144.281 136.695 144.205C135.844 144.13 135.037 143.797 134.38 143.25C133.722 142.704 133.247 141.97 133.016 141.147C132.786 140.323 132.811 139.449 133.089 138.64C133.367 137.831 133.884 137.127 134.571 136.619C135.259 136.112 136.085 135.826 136.938 135.8V135.8Z" fill="#9F616A"/>
<path d="M149.702 122.371L144.217 109.451L146.356 100.451L148.662 97.5347C148.831 97.4624 149.013 97.426 149.196 97.4277C149.38 97.4294 149.561 97.4692 149.729 97.5446C150.579 97.8872 151.302 98.9374 151.88 100.666L157.022 115.329L149.702 122.371Z" fill="#F2357D"/>
<path d="M121.241 84.1308V74.3899C121.236 72.6758 121.567 70.9773 122.217 69.3915C122.867 67.8057 123.822 66.3636 125.029 65.1475C126.235 63.9315 127.669 62.9652 129.249 62.304C130.828 61.6428 132.522 61.2996 134.234 61.2939C135.946 61.2882 137.642 61.6202 139.226 62.2709C140.809 62.9216 142.25 63.8783 143.464 65.0864C144.679 66.2944 145.643 67.7302 146.304 69.3116C146.964 70.8931 147.307 72.5893 147.313 74.3034C147.313 74.3322 147.313 74.3611 147.313 74.3899V84.1308C147.312 84.5956 147.127 85.0413 146.799 85.37C146.471 85.6987 146.026 85.8836 145.562 85.8841H122.992C122.528 85.8836 122.083 85.6987 121.755 85.37C121.426 85.0413 121.242 84.5956 121.241 84.1308V84.1308Z" fill="#2F2E41"/>
<path d="M131.598 85.6572C136.877 85.6572 141.156 81.3727 141.156 76.0874C141.156 70.8022 136.877 66.5176 131.598 66.5176C126.32 66.5176 122.041 70.8022 122.041 76.0874C122.041 81.3727 126.32 85.6572 131.598 85.6572Z" fill="#9F616A"/>
<path d="M118.158 75.1692C118.161 72.4317 119.248 69.8072 121.181 67.8715C123.115 65.9358 125.736 64.8469 128.47 64.8438H130.415C133.149 64.8469 135.77 65.9358 137.703 67.8715C139.637 69.8072 140.724 72.4317 140.727 75.1692V75.364H136.615L135.213 71.4313L134.932 75.364H132.807L132.1 73.38L131.958 75.364H118.158V75.1692Z" fill="#2F2E41"/>
<path d="M130.658 86.9796C130.465 86.7178 130.349 86.4068 130.325 86.0823C130.301 85.7579 130.369 85.4331 130.521 85.1455C132.582 81.2188 135.469 73.9629 131.637 69.4882L131.363 69.1671H142.487V85.8902L132.381 87.6755C132.279 87.6937 132.175 87.7028 132.072 87.7029C131.796 87.7029 131.524 87.6374 131.278 87.5117C131.032 87.3861 130.82 87.2038 130.658 86.98L130.658 86.9796Z" fill="#2F2E41"/>
<path d="M50.2868 48.5866C49.3645 48.5865 48.4628 48.8604 47.6959 49.3734C46.9289 49.8865 46.3311 50.6158 45.9781 51.469C45.6251 52.3223 45.5327 53.2612 45.7126 54.167C45.8925 55.0728 46.3366 55.9049 46.9888 56.558C47.641 57.2111 48.4719 57.6559 49.3765 57.8361C50.2812 58.0164 51.2189 57.9239 52.071 57.5705C52.9232 57.2171 53.6516 56.6187 54.1641 55.8508C54.6765 55.0829 54.9501 54.1801 54.9501 53.2565V53.2562C54.9501 52.643 54.8295 52.0358 54.5952 51.4692C54.3608 50.9027 54.0173 50.3879 53.5842 49.9543C53.1512 49.5207 52.6371 49.1767 52.0713 48.942C51.5055 48.7074 50.899 48.5866 50.2866 48.5866H50.2868ZM50.2868 49.9874C50.5635 49.9874 50.834 50.0695 51.064 50.2234C51.2941 50.3773 51.4734 50.5961 51.5793 50.8521C51.6852 51.108 51.7129 51.3897 51.6589 51.6614C51.6049 51.9331 51.4717 52.1827 51.276 52.3786C51.0804 52.5745 50.8311 52.7079 50.5598 52.762C50.2884 52.816 50.0071 52.7883 49.7515 52.6823C49.4959 52.5763 49.2774 52.3967 49.1237 52.1664C48.9699 51.936 48.8879 51.6652 48.8879 51.3881C48.8879 51.0166 49.0353 50.6603 49.2976 50.3976C49.56 50.1349 49.9158 49.9874 50.2868 49.9874V49.9874ZM50.2868 56.7313C49.7341 56.7288 49.1904 56.5913 48.7028 56.3307C48.2152 56.0701 47.7985 55.6944 47.4887 55.2361C47.5112 54.3021 49.3541 53.7881 50.2868 53.7881C51.2195 53.7881 53.0625 54.3021 53.085 55.2361C52.7749 55.6941 52.358 56.0696 51.8705 56.3301C51.383 56.5906 50.8394 56.7283 50.2868 56.7313Z" fill="#F2357D"/>
<path d="M50.3409 87.1537C52.2622 83.6284 56.8646 81.3958 60.6295 83.4082C62.3242 84.3138 63.6713 85.9159 64.0989 87.8094C64.5952 90.009 63.5495 92.1064 62.4701 93.9543C61.8842 94.9574 61.2422 95.94 60.7573 96.998C60.2552 98.0936 59.8963 99.3598 60.2743 100.552C60.6146 101.625 61.4679 102.406 62.4023 102.98C63.4336 103.59 64.5305 104.081 65.6721 104.443C68.022 105.225 70.5006 105.546 72.972 105.388C74.2004 105.305 75.4183 105.108 76.6103 104.8C77.8784 104.476 79.1227 104.066 80.3928 103.749C82.5134 103.222 84.9313 102.959 86.9422 104.019C88.8957 105.048 89.77 107.202 90.0404 109.296C90.5398 113.165 89.008 117.179 86.2425 119.888C84.9156 121.187 83.2459 122.261 81.4273 122.7C79.8406 123.084 77.8031 123.059 76.5403 121.871C75.1312 120.546 75.4627 118.42 76.5818 117.022C78.0104 115.237 80.4304 114.808 82.59 114.765C85.0466 114.716 87.501 115.082 89.9562 114.854C91.1546 114.761 92.3305 114.477 93.4396 114.013C94.4147 113.583 95.3041 112.981 96.0648 112.234C97.5806 110.76 98.6029 108.795 99.1112 106.753C99.7233 104.297 99.5898 101.715 99.1147 99.2481C98.8615 97.976 98.5354 96.7195 98.1381 95.4848C97.974 94.9638 97.1524 95.1867 97.3177 95.7112C98.7809 100.357 99.5968 105.729 96.7697 110.043C95.5997 111.872 93.7771 113.186 91.6734 113.716C89.2265 114.325 86.659 114.024 84.1715 113.934C81.8062 113.847 79.2089 113.94 77.1813 115.32C75.518 116.451 74.3546 118.603 74.8574 120.635C75.3422 122.594 77.2226 123.588 79.1033 123.741C81.0765 123.902 83.0183 123.239 84.6755 122.202C88.1228 120.045 90.415 116.251 90.8947 112.229C91.1446 110.134 90.8903 107.876 89.9411 105.974C89.441 104.944 88.6626 104.076 87.6942 103.467C86.7286 102.874 85.6133 102.582 84.4932 102.479C81.9484 102.244 79.5034 103.119 77.0893 103.788C75.8561 104.147 74.592 104.388 73.3138 104.51C72.0731 104.613 70.8253 104.593 69.5887 104.449C68.3616 104.304 67.1523 104.036 65.9792 103.647C64.8296 103.291 63.7289 102.793 62.7027 102.164C61.7974 101.584 61.0145 100.754 60.9699 99.6226C60.9216 98.3958 61.5394 97.2483 62.1269 96.214C63.2878 94.1708 64.7217 92.1724 65.0244 89.7806C65.2895 87.6883 64.4487 85.6261 62.9968 84.1338C62.2692 83.3764 61.3931 82.7775 60.4236 82.3748C59.4541 81.9721 58.412 81.7741 57.3626 81.7934C55.2084 81.8551 53.1458 82.7931 51.5613 84.2338C50.7754 84.9487 50.1141 85.7898 49.6046 86.7226C49.3422 87.204 50.0765 87.6343 50.3392 87.1525L50.3409 87.1537Z" fill="#3F3D56"/>
</g>
<rect x="0.5" y="0.5" width="209" height="188" rx="15.5" stroke="#B9B9B9" stroke-opacity="0.8"/>
<defs>
<clipPath id="clip0_305_516">
<rect width="149" height="100" fill="white" transform="translate(30 45)"/>
</clipPath>
</defs>
</svg>
