<svg width="29" height="28" viewBox="0 0 29 28" fill="none" xmlns="http://www.w3.org/2000/svg">
<mask id="mask0_305_1675" style="mask-type:alpha" maskUnits="userSpaceOnUse" x="2" y="1" width="25" height="26">
<path fill-rule="evenodd" clip-rule="evenodd" d="M2.83301 1.16687H26.7494V26.256H2.83301V1.16687Z" fill="white"/>
</mask>
<g mask="url(#mask0_305_1675)">
<path d="M3.5 9.99988L15 1.49988L26 9.99988V21.4999L25 24.4999L20 25.4999L18.5 24.4999L18 19.4999L17 18.4999H12.5L11.5 19.4999V24.4999L10 25.4999L5 24.4999L3.5 22.9999V9.99988Z" fill="#F2357D" stroke="black" stroke-width="0.5"/>
<path fill-rule="evenodd" clip-rule="evenodd" d="M16.5028 17.84C17.9075 17.84 19.0508 18.9752 19.0508 20.3705V23.9592C19.0508 24.259 19.2912 24.4993 19.5992 24.5063H21.8228C23.5752 24.5063 24.9997 23.0993 24.9997 21.3703V11.1923C24.9915 10.5973 24.708 10.0373 24.2215 9.66516L16.5297 3.53083C15.4972 2.713 14.0528 2.713 13.0168 3.53316L5.37751 9.66283C4.87234 10.0467 4.58884 10.6067 4.58301 11.2122V21.3703C4.58301 23.0993 6.00751 24.5063 7.75984 24.5063H10.0045C10.3207 24.5063 10.5773 24.2555 10.5773 23.9475C10.5773 23.8798 10.5855 23.8122 10.5995 23.748V20.3705C10.5995 18.9833 11.7358 17.8493 13.13 17.84H16.5028ZM21.8228 26.2563H19.5782C18.2925 26.226 17.3008 25.2168 17.3008 23.9592V20.3705C17.3008 19.94 16.9427 19.59 16.5028 19.59H13.1358C12.7053 19.5923 12.3495 19.9435 12.3495 20.3705V23.9475C12.3495 24.035 12.3378 24.119 12.3133 24.1983C12.1873 25.3533 11.2003 26.2563 10.0045 26.2563H7.75984C5.04267 26.2563 2.83301 24.0642 2.83301 21.3703V11.204C2.84467 10.0443 3.37901 8.98266 4.30184 8.28383L11.926 2.16466C13.6048 0.834662 15.944 0.834662 17.6193 2.16233L25.2983 8.28733C26.2002 8.97449 26.7345 10.0338 26.7497 11.1795V21.3703C26.7497 24.0642 24.54 26.2563 21.8228 26.2563Z" fill="#19191B"/>
</g>
</svg>
