<svg width="29" height="28" viewBox="0 0 29 28" fill="none" xmlns="http://www.w3.org/2000/svg">
<mask id="mask0_407_128" style="mask-type:luminance" maskUnits="userSpaceOnUse" x="2" y="1" width="25" height="26">
<path fill-rule="evenodd" clip-rule="evenodd" d="M2.83301 1.16687H26.7494V26.256H2.83301V1.16687Z" fill="white"/>
</mask>
<g mask="url(#mask0_407_128)">
<path fill-rule="evenodd" clip-rule="evenodd" d="M16.5028 17.8398C17.9075 17.8398 19.0508 18.975 19.0508 20.3703V23.959C19.0508 24.2588 19.2912 24.4991 19.5992 24.5061H21.8228C23.5752 24.5061 24.9997 23.0991 24.9997 21.3701V11.1921C24.9915 10.5971 24.708 10.0371 24.2215 9.66498L16.5297 3.53065C15.4972 2.71281 14.0528 2.71281 13.0168 3.53298L5.37751 9.66265C4.87234 10.0465 4.58884 10.6065 4.58301 11.212V21.3701C4.58301 23.0991 6.00751 24.5061 7.75984 24.5061H10.0045C10.3207 24.5061 10.5773 24.2553 10.5773 23.9473C10.5773 23.8796 10.5855 23.812 10.5995 23.7478V20.3703C10.5995 18.9831 11.7358 17.8491 13.13 17.8398H16.5028ZM21.8228 26.2561H19.5782C18.2925 26.2258 17.3008 25.2166 17.3008 23.959V20.3703C17.3008 19.9398 16.9427 19.5898 16.5028 19.5898H13.1358C12.7053 19.5921 12.3495 19.9433 12.3495 20.3703V23.9473C12.3495 24.0348 12.3378 24.1188 12.3133 24.1981C12.1873 25.3531 11.2003 26.2561 10.0045 26.2561H7.75984C5.04267 26.2561 2.83301 24.064 2.83301 21.3701V11.2038C2.84467 10.0441 3.37901 8.98248 4.30184 8.28365L11.926 2.16448C13.6048 0.834479 15.944 0.834479 17.6193 2.16215L25.2983 8.28715C26.2002 8.97431 26.7345 10.0336 26.7497 11.1793V21.3701C26.7497 24.064 24.54 26.2561 21.8228 26.2561V26.2561Z" fill="black"/>
</g>
</svg>
