<svg width="407" height="408" viewBox="0 0 407 408" fill="none" xmlns="http://www.w3.org/2000/svg">
<g filter="url(#filter0_f_305_678)">
<circle cx="203.26" cy="204.11" r="124.26" fill="url(#paint0_linear_305_678)"/>
</g>
<g filter="url(#filter1_f_305_678)">
<circle cx="245.993" cy="155.922" r="90.9217" fill="url(#paint1_linear_305_678)"/>
</g>
<path d="M164.643 121.054H170.066V139.145C170.066 140.818 169.69 142.27 168.938 143.503C168.195 144.737 167.16 145.687 165.834 146.354C164.508 147.021 162.967 147.355 161.21 147.355C159.648 147.355 158.229 147.08 156.953 146.531C155.687 145.974 154.682 145.129 153.938 143.998C153.195 142.857 152.828 141.426 152.836 139.703H158.296C158.313 140.387 158.453 140.974 158.714 141.464C158.985 141.945 159.352 142.317 159.817 142.579C160.29 142.832 160.847 142.959 161.489 142.959C162.165 142.959 162.735 142.815 163.199 142.528C163.672 142.232 164.031 141.802 164.276 141.236C164.521 140.67 164.643 139.973 164.643 139.145V121.054ZM183.292 147.38C181.324 147.38 179.622 146.962 178.186 146.126C176.759 145.281 175.657 144.107 174.88 142.604C174.103 141.092 173.714 139.34 173.714 137.346C173.714 135.336 174.103 133.58 174.88 132.076C175.657 130.564 176.759 129.39 178.186 128.554C179.622 127.71 181.324 127.287 183.292 127.287C185.26 127.287 186.957 127.71 188.385 128.554C189.82 129.39 190.927 130.564 191.704 132.076C192.481 133.58 192.869 135.336 192.869 137.346C192.869 139.34 192.481 141.092 191.704 142.604C190.927 144.107 189.82 145.281 188.385 146.126C186.957 146.962 185.26 147.38 183.292 147.38ZM183.317 143.199C184.212 143.199 184.96 142.946 185.56 142.439C186.159 141.924 186.611 141.223 186.915 140.336C187.228 139.449 187.384 138.44 187.384 137.308C187.384 136.177 187.228 135.167 186.915 134.281C186.611 133.394 186.159 132.693 185.56 132.178C184.96 131.662 184.212 131.405 183.317 131.405C182.413 131.405 181.653 131.662 181.037 132.178C180.429 132.693 179.968 133.394 179.656 134.281C179.352 135.167 179.2 136.177 179.2 137.308C179.2 138.44 179.352 139.449 179.656 140.336C179.968 141.223 180.429 141.924 181.037 142.439C181.653 142.946 182.413 143.199 183.317 143.199ZM196.48 147V121.054H201.877V130.809H202.042C202.278 130.286 202.62 129.754 203.068 129.213C203.524 128.664 204.115 128.208 204.841 127.845C205.576 127.473 206.488 127.287 207.578 127.287C208.997 127.287 210.306 127.659 211.505 128.402C212.704 129.137 213.663 130.248 214.381 131.734C215.099 133.212 215.458 135.066 215.458 137.296C215.458 139.466 215.107 141.299 214.406 142.794C213.714 144.28 212.768 145.408 211.568 146.177C210.378 146.937 209.043 147.317 207.565 147.317C206.518 147.317 205.627 147.144 204.892 146.797C204.166 146.451 203.57 146.016 203.106 145.492C202.641 144.96 202.287 144.424 202.042 143.883H201.801V147H196.48ZM201.763 137.27C201.763 138.427 201.923 139.437 202.244 140.298C202.565 141.16 203.03 141.831 203.638 142.313C204.246 142.786 204.985 143.022 205.855 143.022C206.733 143.022 207.476 142.781 208.085 142.3C208.693 141.81 209.153 141.134 209.465 140.273C209.786 139.403 209.947 138.402 209.947 137.27C209.947 136.147 209.791 135.159 209.478 134.306C209.166 133.453 208.705 132.786 208.097 132.304C207.489 131.823 206.742 131.582 205.855 131.582C204.977 131.582 204.233 131.814 203.625 132.279C203.026 132.743 202.565 133.402 202.244 134.255C201.923 135.108 201.763 136.113 201.763 137.27ZM219.16 147V121.054H224.646V131.759H235.782V121.054H241.255V147H235.782V136.282H224.646V147H219.16ZM258.155 138.715V127.541H263.552V147H258.37V143.465H258.167C257.728 144.606 256.998 145.522 255.976 146.215C254.962 146.907 253.725 147.253 252.264 147.253C250.963 147.253 249.819 146.958 248.83 146.367C247.842 145.775 247.07 144.935 246.512 143.845C245.963 142.756 245.684 141.451 245.676 139.931V127.541H251.073V138.968C251.081 140.117 251.39 141.025 251.998 141.692C252.606 142.359 253.421 142.693 254.443 142.693C255.093 142.693 255.701 142.545 256.267 142.249C256.833 141.945 257.289 141.498 257.635 140.906C257.99 140.315 258.163 139.585 258.155 138.715ZM273.265 135.75V147H267.868V127.541H273.012V130.974H273.24C273.671 129.842 274.393 128.947 275.406 128.288C276.42 127.621 277.649 127.287 279.093 127.287C280.444 127.287 281.622 127.583 282.628 128.174C283.633 128.765 284.414 129.61 284.971 130.708C285.529 131.797 285.807 133.098 285.807 134.61V147H280.411V135.573C280.419 134.382 280.115 133.453 279.498 132.786C278.882 132.11 278.033 131.772 276.952 131.772C276.226 131.772 275.584 131.928 275.026 132.241C274.477 132.553 274.047 133.009 273.734 133.609C273.43 134.2 273.274 134.914 273.265 135.75ZM300.411 127.541V131.595H288.693V127.541H300.411ZM291.353 122.879H296.75V141.02C296.75 141.519 296.826 141.907 296.978 142.186C297.13 142.456 297.341 142.646 297.612 142.756C297.89 142.866 298.211 142.921 298.574 142.921C298.828 142.921 299.081 142.9 299.334 142.857C299.588 142.807 299.782 142.769 299.917 142.743L300.766 146.759C300.496 146.844 300.116 146.941 299.626 147.051C299.136 147.169 298.541 147.241 297.84 147.266C296.539 147.317 295.399 147.144 294.419 146.747C293.448 146.35 292.692 145.733 292.151 144.897C291.611 144.061 291.345 143.005 291.353 141.73V122.879Z" fill="#3E3636"/>
<defs>
<filter id="filter0_f_305_678" x="0.00629425" y="0.856865" width="406.506" height="406.507" filterUnits="userSpaceOnUse" color-interpolation-filters="sRGB">
<feFlood flood-opacity="0" result="BackgroundImageFix"/>
<feBlend mode="normal" in="SourceGraphic" in2="BackgroundImageFix" result="shape"/>
<feGaussianBlur stdDeviation="39.4969" result="effect1_foregroundBlur_305_678"/>
</filter>
<filter id="filter1_f_305_678" x="115.574" y="25.5031" width="260.837" height="260.837" filterUnits="userSpaceOnUse" color-interpolation-filters="sRGB">
<feFlood flood-opacity="0" result="BackgroundImageFix"/>
<feBlend mode="normal" in="SourceGraphic" in2="BackgroundImageFix" result="shape"/>
<feGaussianBlur stdDeviation="19.7484" result="effect1_foregroundBlur_305_678"/>
</filter>
<linearGradient id="paint0_linear_305_678" x1="203.26" y1="79.8506" x2="203.26" y2="328.37" gradientUnits="userSpaceOnUse">
<stop stop-color="#FF7BCA"/>
<stop offset="1" stop-color="#FFC56F" stop-opacity="0.46"/>
</linearGradient>
<linearGradient id="paint1_linear_305_678" x1="245.993" y1="65" x2="245.993" y2="246.843" gradientUnits="userSpaceOnUse">
<stop stop-color="#F22FB0"/>
<stop offset="1" stop-color="#F58A25" stop-opacity="0"/>
<stop offset="1" stop-color="#7061A3"/>
</linearGradient>
</defs>
</svg>
