<svg width="210" height="189" viewBox="0 0 210 189" fill="none" xmlns="http://www.w3.org/2000/svg">
<rect width="210" height="189" rx="16" fill="white"/>
<g clip-path="url(#clip0_305_439)">
<path d="M177.266 151.268L177.517 145.659C180.128 144.269 183.04 143.535 186 143.521C181.926 146.838 182.435 153.233 179.672 157.695C178.8 159.08 177.626 160.251 176.237 161.123C174.849 161.994 173.281 162.544 171.65 162.73L168.24 164.809C167.772 162.211 167.875 159.543 168.543 156.989C169.21 154.435 170.425 152.056 172.104 150.014C173.058 148.878 174.151 147.866 175.359 147.003C176.175 149.147 177.266 151.268 177.266 151.268Z" fill="#F2F2F2"/>
<path d="M157.019 164.469C164.566 164.469 170.683 158.376 170.683 150.86C170.683 143.344 164.566 137.251 157.019 137.251C149.472 137.251 143.354 143.344 143.354 150.86C143.354 158.376 149.472 164.469 157.019 164.469Z" fill="#F2357D"/>
<path d="M151.442 145.537C151.255 146.54 150.947 147.518 150.526 148.449C148.116 153.527 154.98 151.872 157.433 151.872C160.115 151.872 162.682 153.276 162.29 147.035C162.122 144.369 160.115 142.199 157.433 142.199C155.142 142.199 151.921 143.213 151.442 145.537Z" fill="#2F2E41"/>
<path d="M157.031 151.871C159.211 151.871 160.978 150.111 160.978 147.94C160.978 145.77 159.211 144.01 157.031 144.01C154.852 144.01 153.085 145.77 153.085 147.94C153.085 150.111 154.852 151.871 157.031 151.871Z" fill="#FFB6B6"/>
<path d="M154.351 143.934C155.043 143.514 155.835 143.287 156.645 143.276C157.455 143.266 158.252 143.472 158.955 143.873C159.657 144.275 160.238 144.857 160.638 145.559C161.037 146.261 161.239 147.057 161.224 147.863C159.213 148.366 157.101 148.751 154.956 147.983L154.45 146.749L154.151 147.984C153.498 148.25 152.843 148.475 152.189 147.982C152.162 147.177 152.348 146.38 152.727 145.67C153.107 144.96 153.667 144.361 154.351 143.934V143.934Z" fill="#2F2E41"/>
<path d="M167.644 159.909C165.276 162.591 161.945 164.239 158.368 164.497C154.791 164.754 151.256 163.601 148.526 161.285L149.698 158.028C149.963 157.449 150.381 156.954 150.907 156.594C151.434 156.234 152.048 156.023 152.686 155.985L153.431 155.939L155.209 154.412C155.209 154.412 160 154.242 159.929 154.16L162.83 155.898L162.828 155.886L163.969 155.956C164.606 155.994 165.221 156.205 165.747 156.565C166.273 156.925 166.691 157.42 166.956 157.999L167.644 159.909Z" fill="#3F3D56"/>
<path d="M51.3288 54.9372C51.324 57.6288 50.5179 60.2584 49.0125 62.4937C47.507 64.729 45.3698 66.4695 42.8712 67.495C40.3725 68.5206 37.6245 68.7853 34.9749 68.2555C32.3252 67.7257 29.8927 66.4254 27.9851 64.5188C26.0775 62.6122 24.7804 60.1851 24.2579 57.5444C23.7353 54.9036 24.0108 52.1679 25.0494 49.6831C26.0881 47.1982 27.8433 45.076 30.093 43.5846C32.3428 42.0932 34.9861 41.2998 37.6886 41.3045C39.4844 41.3031 41.2627 41.655 42.9214 42.3402C44.5802 43.0254 46.0866 44.0303 47.3541 45.2971C48.6217 46.564 49.6253 48.0678 50.3074 49.7222C50.9895 51.3765 51.3366 53.1489 51.3288 54.9372V54.9372Z" fill="#F2F2F2"/>
<path d="M31.3312 50.4863C31.8962 48.6929 33.181 47.0481 34.958 46.4419C36.735 45.8356 39.3371 46.7591 40.673 48.0851C43.1167 50.5106 43.7131 58.8431 42.0342 61.4762C41.7002 61.4586 40.5479 61.4456 40.2099 61.433L39.7318 59.8459V61.4173C39.1933 61.4008 38.6507 61.3893 38.1038 61.383C36.2701 61.3604 34.5167 60.6306 33.2122 59.3471C31.9076 58.0637 31.1536 56.3265 31.1085 54.5007C31.0647 52.7542 31.1085 51.193 31.3312 50.4863Z" fill="#CCCCCC"/>
<path d="M37.4616 56.4298C39.6124 56.4298 41.3559 54.6934 41.3559 52.5514C41.3559 50.4095 39.6124 48.6731 37.4616 48.6731C35.3109 48.6731 33.5674 50.4095 33.5674 52.5514C33.5674 54.6934 35.3109 56.4298 37.4616 56.4298Z" fill="#CCCCCC"/>
<path d="M34.1011 49.1453L38.5849 46.9093C39.5016 47.3207 40.2911 47.9688 40.8715 48.7865C41.452 49.6042 41.8021 50.5616 41.8858 51.5595L41.9976 52.8928L40.1199 52.4168L39.9142 50.712L39.5954 52.2838L38.7289 52.0642L38.7371 49.4175L37.8701 52.0623L34.7753 51.3542L34.1011 49.1453Z" fill="#CCCCCC"/>
<path d="M47.8044 63.9187C45.4371 66.6014 42.1054 68.2493 38.5287 68.5067C34.952 68.7641 31.417 67.6105 28.687 65.2947L29.859 62.0377C30.1239 61.4592 30.5419 60.9634 31.0681 60.6035C31.5944 60.2436 32.2091 60.0332 32.8463 59.9947L33.5919 59.9492L35.3698 58.422C35.3698 58.422 40.1603 58.2517 40.0893 58.1701L42.991 59.9084L42.9886 59.8964L44.1293 59.9659C44.7666 60.0042 45.3814 60.2146 45.9077 60.5745C46.4339 60.9344 46.8519 61.4303 47.1166 62.0089L47.8044 63.9187Z" fill="#CCCCCC"/>
<path d="M37.7616 131.022C45.3082 131.022 51.426 124.929 51.426 117.413C51.426 109.897 45.3082 103.805 37.7616 103.805C30.2149 103.805 24.0972 109.897 24.0972 117.413C24.0972 124.929 30.2149 131.022 37.7616 131.022Z" fill="#F2F2F2"/>
<path d="M32.1849 112.09C31.9974 113.094 31.6899 114.071 31.2689 115.002C28.8585 120.08 35.7229 118.425 38.176 118.425C40.8581 118.425 43.4244 119.83 43.0324 113.588C42.865 110.922 40.8581 108.752 38.176 108.752C35.8851 108.752 32.664 109.766 32.1849 112.09Z" fill="#CCCCCC"/>
<path d="M37.774 118.424C39.9535 118.424 41.7204 116.664 41.7204 114.493C41.7204 112.323 39.9535 110.563 37.774 110.563C35.5945 110.563 33.8276 112.323 33.8276 114.493C33.8276 116.664 35.5945 118.424 37.774 118.424Z" fill="#CCCCCC"/>
<path d="M35.094 110.487C35.7856 110.067 36.5777 109.84 37.3875 109.829C38.1973 109.819 38.9951 110.025 39.6975 110.427C40.3999 110.828 40.9811 111.41 41.3803 112.112C41.7795 112.814 41.982 113.61 41.9667 114.416C39.9558 114.919 37.8433 115.304 35.6988 114.536L35.1924 113.302L34.8938 114.537C34.2407 114.803 33.586 115.028 32.9312 114.535C32.9045 113.731 33.0902 112.934 33.4697 112.223C33.8493 111.513 34.4094 110.914 35.094 110.487Z" fill="#CCCCCC"/>
<path d="M48.3864 126.462C46.0191 129.145 42.6875 130.793 39.1108 131.05C35.534 131.307 31.9991 130.154 29.269 127.838L30.4411 124.581C30.7059 124.002 31.1239 123.507 31.6502 123.147C32.1764 122.787 32.7911 122.576 33.4283 122.538L34.174 122.492L35.9519 120.965C35.9519 120.965 40.7424 120.795 40.6713 120.713L43.5731 122.452L43.5706 122.44L44.7113 122.509C45.3486 122.547 45.9634 122.758 46.4897 123.118C47.016 123.478 47.4339 123.974 47.6986 124.552L48.3864 126.462Z" fill="#CCCCCC"/>
<path d="M96.5496 118.584C108.768 118.584 118.673 108.719 118.673 96.5507C118.673 84.382 108.768 74.5173 96.5496 74.5173C84.3309 74.5173 74.4258 84.382 74.4258 96.5507C74.4258 108.719 84.3309 118.584 96.5496 118.584Z" fill="#F2F2F2"/>
<path d="M97.4515 98.7983C101.436 98.7983 104.666 95.5816 104.666 91.6136C104.666 87.6456 101.436 84.4289 97.4515 84.4289C93.4672 84.4289 90.2373 87.6456 90.2373 91.6136C90.2373 95.5816 93.4672 98.7983 97.4515 98.7983Z" fill="#CCCCCC"/>
<path d="M103.803 86.8672C103.803 86.8672 105.681 83.2911 101.549 82.966C101.549 82.966 98.0262 79.7834 94.4354 82.3842C94.4354 82.3842 92.4768 82.3842 91.4058 84.5915C91.4058 84.5915 89.8654 84.0097 89.5268 85.5668C89.5268 85.5668 88.3997 88.8178 89.5268 91.7438C90.654 94.6697 91.0284 94.9948 91.0284 94.9948C91.0284 94.9948 90.2376 91.3639 94.746 91.0388C99.2544 90.7137 103.39 87.9009 103.766 91.477C104.142 95.0531 104.555 93.4376 104.555 93.4376C104.555 93.4376 108.123 88.3302 103.803 86.8672Z" fill="#CCCCCC"/>
<path d="M113.065 111.202C109.233 115.545 103.838 118.213 98.0473 118.63C92.2563 119.047 86.5329 117.179 82.1128 113.429L84.0104 108.156C84.4392 107.219 85.116 106.417 85.968 105.834C86.8201 105.251 87.8153 104.911 88.8471 104.848L90.0543 104.775L92.9329 102.302C92.9329 102.302 100.689 102.026 100.574 101.894L105.272 104.709L105.268 104.689L107.115 104.802C108.147 104.864 109.142 105.204 109.994 105.787C110.847 106.37 111.523 107.173 111.952 108.109L113.065 111.202Z" fill="#CCCCCC"/>
<path d="M60.1117 96.6234C67.6583 96.6234 73.7761 90.5307 73.7761 83.0148C73.7761 75.499 67.6583 69.4062 60.1117 69.4062C52.565 69.4062 46.4473 75.499 46.4473 83.0148C46.4473 90.5307 52.565 96.6234 60.1117 96.6234Z" fill="#F2F2F2"/>
<path d="M59.7344 84.7006C62.1434 84.7006 64.0962 82.7557 64.0962 80.3566C64.0962 77.9575 62.1434 76.0126 59.7344 76.0126C57.3254 76.0126 55.3726 77.9575 55.3726 80.3566C55.3726 82.7557 57.3254 84.7006 59.7344 84.7006Z" fill="#CCCCCC"/>
<path d="M70.363 92.12C67.9957 94.8026 64.664 96.4505 61.0873 96.708C57.5106 96.9654 53.9756 95.8117 51.2456 93.496L52.4176 90.239C52.6825 89.6605 53.1005 89.1647 53.6267 88.8048C54.153 88.4449 54.7677 88.2344 55.4049 88.196L56.1505 88.1504L57.9284 86.6233C57.9284 86.6233 62.7189 86.4529 62.6479 86.3714L65.5496 88.1096L65.5472 88.0976L66.6879 88.1672C67.3252 88.2055 67.94 88.4159 68.4663 88.7758C68.9926 89.1357 69.4105 89.6316 69.6752 90.2102L70.363 92.12Z" fill="#CCCCCC"/>
<path d="M64.3345 77.6625C63.9659 76.3487 63.1285 75.2139 61.9794 74.4714C61.0637 73.888 59.921 73.5903 58.8835 73.8987C57.8461 74.2072 56.9872 75.2212 57.0551 76.3167C56.8629 76.2664 56.6604 76.2707 56.4705 76.3291C56.2807 76.3875 56.111 76.4977 55.9808 76.6471C55.7205 76.9532 55.5395 77.3181 55.4537 77.71C55.1208 78.9383 55.1428 80.2352 55.5173 81.4516L55.4967 81.6262C56.0028 81.5428 56.3868 81.1103 56.6255 80.6495C56.8642 80.1887 57.0016 79.6775 57.2603 79.2279C57.5191 78.7784 57.9488 78.3774 58.4613 78.3634L58.4162 79.1437L59.7391 78.4649C59.6342 78.7147 59.5293 78.9646 59.4245 79.2145C59.8096 79.0542 60.1947 78.8939 60.5798 78.7336C60.5368 78.9739 60.4937 79.2142 60.4507 79.4545C60.5517 79.2459 60.6941 79.0599 60.8693 78.9077C61.0446 78.7555 61.249 78.6403 61.4703 78.5691C61.6915 78.4978 61.925 78.472 62.1565 78.4932C62.388 78.5144 62.6129 78.5822 62.8173 78.6924C63.2779 79.001 63.6099 79.4661 63.7512 80.0007C63.8911 80.5342 63.9661 81.0824 63.9748 81.6336C64.57 80.396 64.6976 78.9863 64.3345 77.6625V77.6625Z" fill="#CCCCCC"/>
<path d="M89.1094 93.9755V93.9836C89.097 93.9539 89.0888 93.9225 89.085 93.8905L89.1094 93.9755Z" fill="#F2F2F2"/>
<path d="M89.1097 93.9836C89.13 94.0686 89.1544 94.1536 89.1788 94.2346C89.1454 94.2437 89.1114 94.2504 89.0771 94.2548L89.1097 93.9836Z" fill="#F2F2F2"/>
<path d="M118.673 96.5054C118.672 102.199 116.459 107.671 112.496 111.774C108.533 115.878 103.129 118.294 97.417 118.517V74.4939C103.13 74.7155 108.534 77.1316 112.497 81.2353C116.46 85.3391 118.674 90.8117 118.673 96.5054V96.5054Z" fill="#F2357D"/>
<path d="M89.085 93.8905L89.1094 93.9755V93.9836C89.097 93.9539 89.0888 93.9225 89.085 93.8905V93.8905Z" fill="#FFB6B6"/>
<path d="M103.001 92.2026C103.003 92.7841 102.93 93.3635 102.786 93.927V93.931C102.461 95.2019 101.786 96.3573 100.838 97.267C99.8893 98.1766 98.7045 98.8044 97.417 99.0797V85.3215C98.9974 85.6598 100.414 86.5273 101.43 87.7795C102.446 89.0316 103.001 90.5927 103.001 92.2026Z" fill="#A0616A"/>
<path d="M113.146 111.247C111.171 113.491 108.758 115.309 106.053 116.593C103.349 117.876 100.41 118.597 97.417 118.711V102.168C99.1443 102.087 100.709 102.002 100.656 101.941L105.355 104.755L105.351 104.734L107.196 104.848C108.228 104.909 109.223 105.249 110.076 105.832C110.928 106.414 111.604 107.218 112.032 108.155L113.101 111.122L113.146 111.247Z" fill="#3F3D56"/>
<path d="M89.1097 93.9836C89.13 94.0686 89.1544 94.1536 89.1788 94.2346C89.1454 94.2437 89.1114 94.2504 89.0771 94.2548L89.1097 93.9836Z" fill="#2F2E41"/>
<path d="M102.806 94.267C102.798 94.1536 102.794 94.0443 102.786 93.931V93.927C102.762 93.1486 102.648 92.3757 102.445 91.6238C102.18 90.7738 101.685 89.9602 100.933 89.5069C99.8068 88.8269 98.2258 89.1952 97.417 90.2152V81.7272C98.1825 81.9264 98.911 82.2461 99.5751 82.6743C101.435 83.8758 102.791 85.7124 103.387 87.8392C103.975 89.9818 103.768 92.2633 102.806 94.267Z" fill="#2F2E41"/>
<path d="M97.113 165C97.0428 165.003 96.9741 164.979 96.9219 164.932C96.8697 164.885 96.8383 164.82 96.8345 164.75V24.25C96.8417 24.1814 96.8741 24.1179 96.9255 24.0717C96.977 24.0256 97.0438 24 97.113 24C97.1823 24 97.249 24.0256 97.3005 24.0717C97.3519 24.1179 97.3844 24.1814 97.3915 24.25V164.75C97.3877 164.82 97.3563 164.885 97.3041 164.932C97.2519 164.979 97.1832 165.003 97.113 165V165Z" fill="#2F2E41"/>
<path d="M124.867 89.6741L117.171 87.7939L106.911 79.1064L108.619 76.405L117.914 82.3021C117.914 82.3021 124.064 83.857 126.167 85.65L124.867 89.6741Z" fill="#FFB6B6"/>
<path d="M107.267 79.2707C108.303 79.2707 109.142 78.4347 109.142 77.4034C109.142 76.3722 108.303 75.5362 107.267 75.5362C106.232 75.5362 105.393 76.3722 105.393 77.4034C105.393 78.4347 106.232 79.2707 107.267 79.2707Z" fill="#FFB6B6"/>
<path d="M125.229 84.6466L118.092 81.7484L114.662 85.8049L117.21 87.8959L124.157 89.6938L124.161 89.712C124.649 91.5029 127.787 92.7188 130.332 93.4234C131.172 93.655 132.069 93.5605 132.841 93.1589C133.614 92.7574 134.204 92.0787 134.493 91.2602V91.2602C134.702 90.6549 134.738 90.0034 134.594 89.3794C134.451 88.7553 134.136 88.1835 133.684 87.7287L131.372 85.4199L125.229 84.6466Z" fill="#E6E6E6"/>
<path d="M105.495 157.488L102.994 156.54L105.474 146.482L109.166 147.881L105.495 157.488Z" fill="#FFB6B6"/>
<path d="M106.444 156.917L105.74 156.65L103.417 154.495L101.518 155.05L101.518 155.05C100.686 154.735 99.7614 154.762 98.9487 155.125C98.1361 155.488 97.5016 156.158 97.1848 156.987L97.146 157.088L105.211 160.145L106.444 156.917Z" fill="#2F2E41"/>
<path d="M130.779 161.664L128.103 161.664L126.83 151.384L130.779 151.384L130.779 161.664Z" fill="#FFB6B6"/>
<path d="M131.461 160.794L130.708 160.794L127.767 159.603L126.191 160.794H126.191C125.3 160.794 124.446 161.146 123.816 161.774C123.186 162.401 122.833 163.252 122.833 164.139V164.247L131.461 164.248L131.461 160.794Z" fill="#2F2E41"/>
<path d="M134.86 117.385C134.86 117.385 135.172 121.12 134.391 124.698C133.901 126.942 133.718 131.739 133.65 135.008C133.61 136.953 132.731 137.263 132.731 137.263L133.314 141.737L131.891 157.997L126.735 157.531L125.329 124.698L116.062 131.996L116.319 132.85C116.444 133.265 115.522 133.211 115.153 133.441L114.244 135.542C114.262 135.889 114.172 136.234 113.988 136.529C113.803 136.824 113.532 137.055 113.211 137.192L108.382 151.5L104.616 149.25L105.871 136.25L107.629 130.25L114.705 121.586L114.861 119.097L115.564 119.125L115.922 118.085L116.579 116.296L134.86 117.385Z" fill="#2F2E41"/>
<path d="M135.129 118.169L135.157 118.131C136.644 116.057 134.408 111.074 134.07 110.352C134.471 110.222 134.814 109.959 135.041 109.606C135.268 109.252 135.366 108.832 135.317 108.415L135.171 107.184L135.02 105.976L136.106 104.895L136.109 104.868L136.734 99.4218L137.642 95.8045C137.985 94.4371 137.955 93.0035 137.558 91.651C137.16 90.2985 136.408 89.0758 135.379 88.1084L133.279 86.136L130.726 82.3745H126.609L125.198 85.0296C123.83 85.3446 122.616 86.1277 121.767 87.2424C120.919 88.3572 120.49 89.7331 120.556 91.1303L120.876 98.0939L119.623 106.764L119.623 108.333L118.97 109.055C118.735 109.315 118.565 109.626 118.472 109.964C118.379 110.301 118.366 110.655 118.435 110.998L118.521 111.426C118.19 111.567 117.897 111.786 117.668 112.063C117.439 112.34 117.28 112.668 117.204 113.02L116.975 114.084C116.779 114.342 115.485 116.06 115.485 116.529C115.485 116.6 115.538 116.668 115.65 116.744C116.531 117.338 121.404 118.55 123.561 117.691C125.858 116.776 134.99 118.148 135.082 118.162L135.129 118.169Z" fill="#E6E6E6"/>
<path d="M128.136 81.1602C131.147 81.1602 133.588 78.7294 133.588 75.7308C133.588 72.7322 131.147 70.3013 128.136 70.3013C125.125 70.3013 122.685 72.7322 122.685 75.7308C122.685 78.7294 125.125 81.1602 128.136 81.1602Z" fill="#FFB6B6"/>
<path d="M126.358 99.5812L122.571 106.513L111.52 114.18L109.333 111.846L117.428 104.398C117.428 104.398 120.505 98.8722 122.782 97.3037L126.358 99.5812Z" fill="#FFB6B6"/>
<path d="M109.958 115.269C110.994 115.269 111.833 114.433 111.833 113.402C111.833 112.371 110.994 111.535 109.958 111.535C108.923 111.535 108.083 112.371 108.083 113.402C108.083 114.433 108.923 115.269 109.958 115.269Z" fill="#FFB6B6"/>
<path d="M126.018 100.505L128.399 94.8128L127.538 91.6671C127.366 91.0501 127.025 90.4932 126.553 90.0592C126.08 89.6252 125.495 89.3315 124.864 89.2113V89.2113C124.007 89.054 123.122 89.2267 122.388 89.6944C121.654 90.162 121.126 90.8898 120.91 91.7305C120.258 94.2808 119.757 97.5962 121.074 98.9082L121.088 98.9215L117.167 104.013L122.941 107.263L126.018 100.505Z" fill="#E6E6E6"/>
<path d="M133.523 71.9893C133.079 71.3943 132.442 70.9713 131.955 70.4115C131.709 70.0868 131.446 69.7763 131.165 69.4814C130.576 68.9939 129.833 68.7296 129.067 68.7351C128.237 68.7139 127.413 68.8876 126.662 69.2424C125.912 69.5972 125.255 70.123 124.747 70.7772C124.351 70.5459 123.954 70.3146 123.558 70.0833C123.402 70.4935 123.245 70.9038 123.089 71.314C122.96 71.2028 122.796 71.1405 122.626 71.1382C122.456 71.1358 122.291 71.1935 122.159 71.301C122.028 71.4086 121.939 71.559 121.908 71.7257C121.877 71.8924 121.906 72.0646 121.991 72.2117C121.897 71.9216 121.465 71.86 121.227 72.0517C121.116 72.158 121.034 72.2901 120.989 72.436C120.943 72.5819 120.934 72.7368 120.963 72.8869C121.012 73.2187 121.16 73.5284 121.386 73.7762C121.613 74.024 121.91 74.1986 122.237 74.2774C122.754 74.3921 123.355 74.2716 123.769 74.6009C124.101 74.8649 124.201 75.3456 124.54 75.6008C124.957 75.9154 125.546 75.7699 126.065 75.8394C126.517 75.9166 126.924 76.1598 127.204 76.521C127.485 76.8822 127.62 77.3351 127.581 77.7903C127.645 77.4991 127.765 77.2234 127.936 76.9788C128.024 76.8579 128.144 76.7649 128.284 76.711C128.423 76.6571 128.575 76.6446 128.722 76.6751C129.194 76.8161 129.271 77.4573 129.157 77.9349C128.853 79.2016 127.703 81.2491 127.703 81.2491C129.197 81.836 130.977 81.2811 132.129 80.1674C133.282 79.0538 133.882 77.4769 134.144 75.8988C134.365 74.5607 134.334 73.0785 133.523 71.9893Z" fill="#2F2E41"/>
<path d="M182.872 164.453C182.872 164.492 182.864 164.53 182.849 164.566C182.834 164.603 182.812 164.635 182.785 164.663C182.757 164.691 182.724 164.713 182.688 164.728C182.651 164.743 182.612 164.75 182.573 164.75H112.213C112.134 164.75 112.058 164.719 112.002 164.663C111.946 164.607 111.915 164.531 111.915 164.453C111.915 164.374 111.946 164.298 112.002 164.242C112.058 164.186 112.134 164.155 112.213 164.155H182.573C182.612 164.155 182.651 164.162 182.688 164.177C182.724 164.192 182.757 164.214 182.785 164.242C182.812 164.27 182.834 164.302 182.849 164.339C182.864 164.375 182.872 164.413 182.872 164.453V164.453Z" fill="#CCCCCC"/>
</g>
<rect x="0.5" y="0.5" width="209" height="188" rx="15.5" stroke="#B9B9B9" stroke-opacity="0.8"/>
<defs>
<clipPath id="clip0_305_439">
<rect width="162" height="141" fill="white" transform="translate(24 24)"/>
</clipPath>
</defs>
</svg>
