<svg width="316" height="235" viewBox="0 0 316 235" fill="none" xmlns="http://www.w3.org/2000/svg">
<g clip-path="url(#clip0_305_139)">
<path d="M171.931 23.9674C176.051 23.9674 179.392 20.6331 179.392 16.52C179.392 12.4069 176.051 9.07263 171.931 9.07263C167.81 9.07263 164.47 12.4069 164.47 16.52C164.47 20.6331 167.81 23.9674 171.931 23.9674Z" fill="#F2357D"/>
<path d="M171.192 19.3609C171.024 19.3612 170.86 19.307 170.726 19.2065L170.718 19.2003L168.964 17.8614C168.623 17.6 168.558 17.1118 168.82 16.7709C169.082 16.43 169.571 16.3655 169.913 16.6268L171.048 17.4962L173.732 14.0013C173.994 13.6605 174.483 13.596 174.824 13.8573L174.824 13.8573L174.824 13.8575L174.808 13.8805L174.825 13.8575C175.166 14.119 175.23 14.6068 174.969 14.9477L171.812 19.0567C171.664 19.2486 171.435 19.3607 171.192 19.36L171.192 19.3609Z" fill="white"/>
<path d="M171.931 74.3141C176.051 74.3141 179.392 70.9798 179.392 66.8667C179.392 62.7536 176.051 59.4193 171.931 59.4193C167.81 59.4193 164.47 62.7536 164.47 66.8667C164.47 70.9798 167.81 74.3141 171.931 74.3141Z" fill="#F2357D"/>
<path d="M171.192 69.7076C171.024 69.7079 170.86 69.6537 170.726 69.5532L170.718 69.5469L168.964 68.2081C168.623 67.9467 168.558 67.4585 168.82 67.1175C169.082 66.7766 169.571 66.7122 169.913 66.9735L171.048 67.8429L173.732 64.3479C173.994 64.0072 174.483 63.9427 174.824 64.204L174.824 64.204L174.824 64.2041L174.808 64.2272L174.825 64.2041C175.166 64.4657 175.23 64.9535 174.969 65.2944L171.812 69.4034C171.664 69.5953 171.435 69.7074 171.192 69.7067L171.192 69.7076Z" fill="white"/>
<path d="M190.668 145.124C190.577 142.791 192.397 140.826 194.734 140.735C194.983 140.725 195.232 140.738 195.479 140.772L202.313 127.39L206.174 134.177L199.093 145.844C198.618 148.143 196.365 149.621 194.063 149.147C192.136 148.75 190.733 147.087 190.668 145.124L190.668 145.124Z" fill="#FFB7B7"/>
<path d="M222.526 229.39L217.163 229.389L214.612 208.743L222.527 208.743L222.526 229.39Z" fill="#FFB7B7"/>
<path d="M223.894 234.578L206.603 234.578V234.359C206.603 230.649 209.616 227.642 213.333 227.642H213.333L223.894 227.642L223.894 234.578Z" fill="#2F2E41"/>
<path d="M251.596 229.39L246.234 229.389L243.683 208.743L251.597 208.743L251.596 229.39Z" fill="#FFB7B7"/>
<path d="M252.964 234.578L235.673 234.578V234.359C235.673 230.649 238.686 227.642 242.403 227.642H242.404L252.964 227.642L252.964 234.578Z" fill="#2F2E41"/>
<path d="M198.905 133.477L196.564 137.372C196.564 137.372 200.466 137.372 201.247 143.214L204.368 139.319L198.905 133.477Z" fill="#E5E5E5"/>
<path d="M239.873 125.299C239.873 125.299 246.116 141.656 247.286 151.782C248.457 161.908 250.408 188.78 250.408 188.78L254.309 223.442L243.385 225L238.702 189.949L228.168 155.287L225.827 189.949L223.876 221.495L213.731 221.884L212.951 189.17L208.659 147.498L211 127.635L239.873 125.299Z" fill="#2F2E41"/>
<path d="M232.264 75.6427L236.166 78.3685L241.239 129.388L209.635 130.167L213.927 94.7261L217.828 84.6001L220.645 80.8835L232.264 75.6427Z" fill="#E5E5E5"/>
<path d="M233.045 112.252L234.239 77.022C234.239 77.022 236.556 77.2003 237.337 78.3688C238.117 79.5372 250.993 81.8739 250.993 81.8739L248.652 118.094C248.652 118.094 258.406 146.914 254.895 148.471C251.383 150.029 245.14 149.64 245.14 149.64L233.045 112.252Z" fill="#2F2E41"/>
<path d="M214.122 107.773L218.261 84.0295L209.049 90.2473L211.39 107.384L209.439 119.067C209.439 119.067 202.026 151.392 204.367 152.561C206.708 153.729 209.439 152.561 209.439 152.561L214.122 119.846V107.773Z" fill="#2F2E41"/>
<path d="M211.781 89.4684L209.05 90.2473L207.879 105.826L205.929 119.457L196.564 136.203C196.564 136.203 201.247 133.088 203.197 142.045L213.51 124.124L211.781 89.4684Z" fill="#2F2E41"/>
<path d="M233.004 141.93C233.368 139.624 235.535 138.049 237.845 138.412C238.092 138.451 238.334 138.511 238.57 138.593L247.876 126.789L250.343 134.196L241.128 144.269C240.215 146.432 237.718 147.446 235.551 146.534C233.738 145.771 232.685 143.868 233.004 141.93Z" fill="#FFB7B7"/>
<path d="M248.847 137.761L245.335 142.045L240.653 133.867L242.604 130.362L248.847 137.761Z" fill="#E5E5E5"/>
<path d="M248.067 83.237L251.188 81.6792C251.188 81.6792 253.529 84.7949 253.919 87.5211C254.309 90.2473 256.26 93.7524 256.26 95.6997C256.26 97.647 261.723 115.952 261.723 115.952L249.237 141.266C249.237 141.266 246.506 131.919 240.653 131.14L250.408 117.509L244.945 107.773L248.067 83.237V83.237Z" fill="#2F2E41"/>
<path d="M315.606 234.819H165.471C165.254 234.819 165.077 234.642 165.077 234.425C165.077 234.208 165.254 234.032 165.471 234.032H315.606C315.823 234.032 316 234.208 316 234.425C316 234.642 315.823 234.819 315.606 234.819Z" fill="#CBCBCB"/>
<path d="M143.83 83.3867H0V50.3467H143.83V83.3867Z" fill="white"/>
<path d="M20.7579 61.2712C19.9839 61.2712 19.3564 61.8975 19.3564 62.6701C19.3564 63.4427 19.9839 64.069 20.7579 64.069H123.078C123.852 64.069 124.479 63.4427 124.479 62.6701C124.479 61.8975 123.852 61.2712 123.078 61.2712H20.7579Z" fill="#F2357D"/>
<path d="M20.7579 69.6644C19.9839 69.6628 19.3551 70.2878 19.3535 71.0603C19.3519 71.8329 19.978 72.4605 20.752 72.4621H85.4396C86.2135 72.4621 86.841 71.8359 86.841 71.0633C86.841 70.2907 86.2135 69.6644 85.4396 69.6644H20.7579V69.6644Z" fill="#F2357D"/>
<path d="M143.83 83.3867H0V50.3467H143.83V83.3867ZM2.36432 81.0267H141.465V52.7067H2.36432V81.0267Z" fill="#E5E5E5"/>
<path d="M143.83 133.733H0V100.693H143.83V133.733Z" fill="white"/>
<path d="M20.7579 111.618C19.9839 111.618 19.3564 112.244 19.3564 113.017C19.3564 113.789 19.9839 114.416 20.7579 114.416H123.078C123.852 114.416 124.479 113.789 124.479 113.017C124.479 112.244 123.852 111.618 123.078 111.618H20.7579Z" fill="#E6E6E6"/>
<path d="M20.7579 120.011C19.9839 120.009 19.3552 120.634 19.3535 121.407C19.3519 122.18 19.978 122.807 20.752 122.809H85.4396C86.2135 122.809 86.841 122.183 86.841 121.41C86.841 120.637 86.2135 120.011 85.4396 120.011H20.7579Z" fill="#E6E6E6"/>
<path d="M143.83 133.733H0V100.693H143.83V133.733ZM2.36432 131.373H141.465V103.053H2.36432V131.373Z" fill="#E5E5E5"/>
<path d="M145.012 33.04H1.18262V0H145.012V33.04Z" fill="white"/>
<path d="M21.9399 10.9246C21.1659 10.926 20.5396 11.5534 20.541 12.326C20.5424 13.0965 21.1679 13.7209 21.9399 13.7223H124.26C125.034 13.7209 125.66 13.0934 125.658 12.3209C125.657 11.5503 125.032 10.926 124.26 10.9246H21.9399Z" fill="#F2357D"/>
<path d="M21.9405 19.3178C21.1665 19.3161 20.5378 19.9411 20.5361 20.7137C20.5345 21.4862 21.1606 22.1138 21.9346 22.1155H86.6222C87.3961 22.1169 88.0247 21.4917 88.0261 20.7192C88.0275 19.9466 87.4013 19.3192 86.6273 19.3178C86.6256 19.3177 86.6239 19.3177 86.6222 19.3178H21.9405V19.3178Z" fill="#F2357D"/>
<path d="M145.012 33.04H1.18262V0H145.012V33.04ZM3.54694 30.68H142.648V2.36H3.54694V30.68Z" fill="#E5E5E5"/>
<path d="M291.304 235V206.546C291.304 206.546 302.413 226.719 291.304 235Z" fill="#F1F1F1"/>
<path d="M291.989 234.995L270.99 215.753C270.99 215.753 293.39 221.226 291.989 234.995Z" fill="#F1F1F1"/>
<path d="M190.846 144.267C194.966 144.267 198.307 140.932 198.307 136.819C198.307 132.706 194.966 129.372 190.846 129.372C186.725 129.372 183.385 132.706 183.385 136.819C183.385 140.932 186.725 144.267 190.846 144.267Z" fill="#F2357D"/>
<path d="M190.107 139.66C189.939 139.661 189.775 139.606 189.641 139.506L189.633 139.5L187.879 138.161C187.538 137.899 187.473 137.411 187.735 137.07C187.997 136.729 188.486 136.665 188.828 136.926L189.963 137.795L192.647 134.301C192.909 133.96 193.398 133.895 193.739 134.157L193.739 134.157L193.723 134.18L193.74 134.157C194.081 134.418 194.145 134.906 193.884 135.247L190.727 139.356C190.579 139.548 190.35 139.66 190.107 139.659L190.107 139.66Z" fill="white"/>
<path d="M221.295 76.2882C227.194 76.2882 231.975 71.5153 231.975 65.6277C231.975 59.74 227.194 54.9672 221.295 54.9672C215.397 54.9672 210.615 59.74 210.615 65.6277C210.615 71.5153 215.397 76.2882 221.295 76.2882Z" fill="#FFB6B6"/>
<path d="M230.625 73.8186C230.625 73.8186 233.788 67.424 233.732 64.9827C233.675 62.5414 231.947 56.2592 231.218 55.845C230.488 55.4307 222.624 51.4448 220.492 52.6432C218.361 53.8417 214.61 57.9407 210.564 59.0497C209.42 59.3633 210.419 65.2313 210.419 65.2313L215.153 64.5477C215.153 64.5477 220.089 60.1238 220.302 63.1362C220.516 66.1486 225.093 64.8939 225.093 64.8939L225.149 67.3352L227.023 67.4358L227.539 64.8377C227.539 64.8377 228.381 70.1345 227.293 72.8895C226.205 75.6444 230.625 73.8186 230.625 73.8186V73.8186Z" fill="#2F2E41"/>
</g>
<defs>
<clipPath id="clip0_305_139">
<rect width="316" height="235" fill="white"/>
</clipPath>
</defs>
</svg>
